<svg version="1.1" viewBox="0.0 0.0 960.0 720.0" fill="none" stroke="none" stroke-linecap="square" stroke-miterlimit="10" xmlns:xlink="http://www.w3.org/1999/xlink" xmlns="http://www.w3.org/2000/svg"><clipPath id="p.0"><path d="m0 0l960.0 0l0 720.0l-960.0 0l0 -720.0z" clip-rule="nonzero"/></clipPath><g clip-path="url(#p.0)"><path fill="#000000" fill-opacity="0.0" d="m0 0l960.0 0l0 720.0l-960.0 0z" fill-rule="evenodd"/><path fill="#000000" fill-opacity="0.0" d="m-92.88189 369.73752l1145.7637 0l0 114.141754l-1145.7637 0z" fill-rule="evenodd"/><path fill="#ffffff" d="m62.722847 441.13065q-3.84375 0 -7.59375 -0.671875q-3.734375 -0.671875 -6.109375 -1.8125l0 -5.890625q6.15625 2.875 13.25 2.875q9.984375 0 9.984375 -6.71875q0 -2.296875 -1.09375 -3.703125q-1.078125 -1.421875 -3.125 -2.46875q-2.046875 -1.0625 -6.65625 -2.921875q-6.34375 -2.546875 -9.15625 -5.625q-2.8125 -3.078125 -2.8125 -7.75q0 -3.515625 1.921875 -6.234375q1.921875 -2.71875 5.375 -4.21875q3.453125 -1.515625 7.9375 -1.515625q3.640625 0 6.578125 0.578125q2.953125 0.578125 5.765625 1.859375l0 5.640625q-5.5625 -2.5 -11.265625 -2.5q-4.609375 0 -7.046875 1.671875q-2.421875 1.65625 -2.421875 4.71875q0 2.125 1.046875 3.5625q1.0625 1.4375 3.140625 2.5625q2.09375 1.109375 6.1875 2.78125q4.546875 1.859375 7.15625 3.53125q2.625 1.65625 4.0 4.0625q1.390625 2.390625 1.390625 5.96875q0 5.828125 -4.171875 9.03125q-4.15625 3.1875 -12.28125 3.1875zm39.685196 0q-5.1875 0 -9.125 -1.9375q-3.9375 -1.953125 -6.15625 -5.625q-2.203125 -3.6875 -2.203125 -8.6875q0 -4.921875 2.171875 -8.625q2.1875 -3.71875 6.15625 -5.734375q3.96875 -2.03125 9.15625 -2.03125q5.171875 0 9.140625 2.03125q3.96875 2.015625 6.171875 5.734375q2.21875 3.703125 2.21875 8.625q0 5.0 -2.21875 8.6875q-2.203125 3.671875 -6.171875 5.625q-3.96875 1.9375 -9.140625 1.9375zm0 -5.109375q4.984375 0 7.921875 -3.0625q2.953125 -3.078125 2.953125 -8.078125q0 -5.1875 -2.953125 -8.1875q-2.9375 -3.015625 -7.921875 -3.015625q-5.0 0 -7.953125 3.015625q-2.9375 3.0 -2.9375 8.1875q0 5.0 2.9375 8.078125q2.953125 3.0625 7.953125 3.0625zm26.674171 -21.578125l-4.6718674 0l0 -4.984375l4.6718674 0l0 -6.015625q0 -5.3125 3.0 -8.09375q3.015625 -2.78125 8.078125 -2.78125q2.625 0 4.921875 0.765625l0 5.375q-1.78125 -0.828125 -3.703125 -0.828125q-3.015625 0 -4.421875 1.4375q-1.40625 1.4375 -1.40625 4.5l0 5.640625l7.6875 0l0 4.984375l-7.6875 0l0 25.734375l-6.46875 0l0 -25.734375zm32.32634 26.6875q-4.671875 0 -7.203125 -2.6875q-2.53125 -2.6875 -2.53125 -7.609375l0 -16.390625l-4.671875 0l0 -4.984375l4.671875 0l0 -9.21875l6.53125 0l0 9.21875l7.5625153 0l0 4.984375l-7.5625153 0l0 15.9375q0 3.078125 1.1875 4.359375q1.1875 1.28125 4.3125153 1.28125q1.859375 0 3.71875 -0.828125l0 5.109375q-2.4375 0.828125 -6.0156403 0.828125zm10.810959 -31.671875l6.59375 0l6.921875 22.78125l6.84375 -22.78125l5.828125 0l6.84375 22.78125l6.90625 -22.78125l6.65625 0l-9.984375 30.71875l-6.203125 0l-7.109375 -22.90625l-7.09375 22.90625l-6.28125 0l-9.921875 -30.71875zm64.64877 31.671875q-5.578125 0 -8.9375 -2.84375q-3.359375 -2.84375 -3.359375 -7.703125q0 -5.125 3.234375 -7.90625q3.234375 -2.78125 9.1875 -2.78125q6.328125 0 10.75 2.546875l0 -1.59375q0 -3.640625 -2.21875 -5.40625q-2.203125 -1.765625 -6.9375 -1.765625q-2.8125 0 -5.46875 0.546875q-2.65625 0.546875 -4.765625 1.5l0 -5.25q1.921875 -0.890625 4.984375 -1.4375q3.078125 -0.546875 5.953125 -0.546875q7.625 0 11.296875 3.375q3.6875 3.359375 3.6875 9.296875l0 19.015625l-6.078125 0l0 -3.453125q-1.984375 2.171875 -4.703125 3.296875q-2.71875 1.109375 -6.625 1.109375zm1.59375 -4.921875q3.078125 0 5.5625 -1.21875q2.5 -1.21875 3.71875 -3.390625l0 -4.15625q-4.15625 -2.6875 -9.28125 -2.6875q-3.703125 0 -5.53125 1.4375q-1.828125 1.4375 -1.828125 4.390625q0 5.625 7.359375 5.625zm23.80658 -26.75l6.28125 0l0 5.5q1.921875 -2.8125 5.40625 -4.15625q3.484375 -1.34375 8.09375 -1.34375l0 5.0625q-4.921875 0 -8.453125 1.59375q-3.515625 1.59375 -4.859375 5.046875l0 19.015625l-6.46875 0l0 -30.71875zm42.4422 31.671875q-8.515625 0 -13.359375 -4.25q-4.828125 -4.25 -4.828125 -12.0q0 -7.546875 4.3125 -11.96875q4.328125 -4.421875 12.328125 -4.421875q5.3125 0 9.015625 2.03125q3.71875 2.015625 5.609375 5.5625q1.890625 3.546875 1.890625 8.09375l0 3.203125l-27.0 0q0.3125 4.34375 3.671875 6.5q3.359375 2.140625 9.125 2.140625q2.9375 0 5.9375 -0.546875q3.015625 -0.546875 5.328125 -1.4375l0 5.1875q-2.046875 0.828125 -5.421875 1.359375q-3.359375 0.546875 -6.609375 0.546875zm8.890625 -18.296875q-0.125 -4.359375 -2.84375 -6.75q-2.71875 -2.40625 -7.71875 -2.40625q-4.859375 0 -7.546875 2.5q-2.6875 2.5 -2.8125 6.65625l20.921875 0zm59.201263 18.296875q-6.921875 0 -12.296875 -2.875q-5.375 -2.875 -8.390625 -8.15625q-3.0 -5.28125 -3.0 -12.265625q0 -6.96875 3.0 -12.28125q3.015625 -5.3125 8.390625 -8.1875q5.375 -2.890625 12.296875 -2.890625q9.21875 0 15.421875 4.671875l0 6.28125q-5.5625 -4.9375 -14.84375 -4.9375q-5.1875 0 -9.1875 2.125q-4.0 2.109375 -6.25 6.046875q-2.234375 3.9375 -2.234375 9.171875q0 5.25 2.265625 9.21875q2.28125 3.96875 6.28125 6.09375q4.0 2.109375 9.125 2.109375q4.734375 0 8.46875 -1.25q3.75 -1.25 6.953125 -4.0l0 6.328125q-5.765625 4.796875 -16.0 4.796875zm39.236786 0q-5.1875 0 -9.125 -1.9375q-3.9375 -1.953125 -6.15625 -5.625q-2.203125 -3.6875 -2.203125 -8.6875q0 -4.921875 2.171875 -8.625q2.1875 -3.71875 6.15625 -5.734375q3.96875 -2.03125 9.15625 -2.03125q5.171875 0 9.140625 2.03125q3.96875 2.015625 6.171875 5.734375q2.21875 3.703125 2.21875 8.625q0 5.0 -2.21875 8.6875q-2.203125 3.671875 -6.171875 5.625q-3.96875 1.9375 -9.140625 1.9375zm0 -5.109375q4.984375 0 7.921875 -3.0625q2.953125 -3.078125 2.953125 -8.078125q0 -5.1875 -2.953125 -8.1875q-2.9375 -3.015625 -7.921875 -3.015625q-5.0 0 -7.953125 3.015625q-2.9375 3.0 -2.9375 8.1875q0 5.0 2.9375 8.078125q2.953125 3.0625 7.953125 3.0625zm39.424194 5.109375q-4.609375 0 -8.296875 -2.015625q-3.671875 -2.015625 -5.765625 -5.6875q-2.078125 -3.6875 -2.078125 -8.546875q0 -4.796875 2.078125 -8.5q2.09375 -3.71875 5.765625 -5.796875q3.6875 -2.09375 8.296875 -2.09375q8.3125 0 12.59375 5.0625l0 -20.671875l6.46875 0l0 47.296875l-6.265625 0l0 -4.484375q-2.5625 2.828125 -5.609375 4.140625q-3.03125 1.296875 -7.1875 1.296875zm1.46875 -5.109375q3.96875 0 6.9375 -2.078125q2.984375 -2.078125 4.1875 -5.609375l0 -6.90625q-1.078125 -3.515625 -4.125 -5.625q-3.03125 -2.125 -7.0 -2.125q-3.140625 0 -5.671875 1.40625q-2.53125 1.40625 -3.96875 3.96875q-1.4375 2.5625 -1.4375 5.828125q0 3.265625 1.4375 5.828125q1.4375 2.5625 3.96875 3.9375q2.53125 1.375 5.671875 1.375zm29.693054 -32.578125q-1.59375 0 -2.6875 -1.078125q-1.09375 -1.09375 -1.09375 -2.703125q0 -1.59375 1.09375 -2.671875q1.09375 -1.09375 2.6875 -1.09375q1.65625 0 2.78125 1.09375q1.125 1.078125 1.125 2.671875q0 1.609375 -1.125 2.703125q-1.125 1.078125 -2.78125 1.078125zm-3.265625 6.015625l6.59375 0l0 30.71875l-6.59375 0l0 -30.71875zm15.484314 0l6.28125 0l0 4.421875q2.171875 -2.765625 5.328125 -4.078125q3.171875 -1.3125 6.640625 -1.3125q6.140625 0 9.140625 3.265625q3.015625 3.265625 3.015625 8.78125l0 19.640625l-6.46875 0l0 -19.015625q0 -7.484375 -7.171875 -7.484375q-3.0625 0 -5.71875 1.453125q-2.65625 1.4375 -4.578125 4.375l0 20.671875l-6.46875 0l0 -30.71875zm54.462463 45.4375q-3.125 0 -6.109375 -0.515625q-2.96875 -0.5 -5.015625 -1.46875l0 -5.3125q4.796875 2.171875 11.125 2.171875q5.953125 0 8.671875 -2.59375q2.71875 -2.578125 2.71875 -7.828125l0 -3.265625q-4.21875 5.046875 -12.40625 5.046875q-4.671875 0 -8.390625 -2.046875q-3.703125 -2.046875 -5.828125 -5.75q-2.109375 -3.71875 -2.109375 -8.515625q0 -4.859375 2.078125 -8.53125q2.09375 -3.6875 5.765625 -5.734375q3.6875 -2.0625 8.296875 -2.0625q4.28125 0 7.25 1.25q2.984375 1.25 5.546875 4.140625l0 -4.421875l6.265625 0l0 29.1875q0 7.875 -4.390625 12.0625q-4.375 4.1875 -13.46875 4.1875zm0.265625 -18.875q3.96875 0 7.0 -2.109375q3.046875 -2.125 4.125 -5.640625l0 -6.90625q-1.203125 -3.59375 -4.1875 -5.640625q-2.96875 -2.046875 -6.9375 -2.046875q-3.140625 0 -5.671875 1.375q-2.53125 1.375 -3.96875 3.9375q-1.4375 2.5625 -1.4375 5.828125q0 3.328125 1.4375 5.859375q1.4375 2.53125 3.96875 3.9375q2.53125 1.40625 5.671875 1.40625zm49.591736 -40.578125l29.5 0l0 5.5l-22.96875 0l0 14.140625l17.15625 0l0 5.453125l-17.15625 0l0 14.203125l22.96875 0l0 5.4375l-29.5 0l0 -44.734375zm34.942688 14.015625l6.859375 0l9.015625 22.078125l9.03125 -22.078125l6.84375 0l-13.0625 30.71875l-5.625 0l-13.0625 -30.71875zm49.800842 31.671875q-5.578125 0 -8.9375 -2.84375q-3.359375 -2.84375 -3.359375 -7.703125q0 -5.125 3.234375 -7.90625q3.234375 -2.78125 9.1875 -2.78125q6.328125 0 10.75 2.546875l0 -1.59375q0 -3.640625 -2.21875 -5.40625q-2.203125 -1.765625 -6.9375 -1.765625q-2.8125 0 -5.46875 0.546875q-2.65625 0.546875 -4.765625 1.5l0 -5.25q1.921875 -0.890625 4.984375 -1.4375q3.078125 -0.546875 5.953125 -0.546875q7.625 0 11.296875 3.375q3.6875 3.359375 3.6875 9.296875l0 19.015625l-6.078125 0l0 -3.453125q-1.984375 2.171875 -4.703125 3.296875q-2.71875 1.109375 -6.625 1.109375zm1.59375 -4.921875q3.078125 0 5.5625 -1.21875q2.5 -1.21875 3.71875 -3.390625l0 -4.15625q-4.15625 -2.6875 -9.28125 -2.6875q-3.703125 0 -5.53125 1.4375q-1.828125 1.4375 -1.828125 4.390625q0 5.625 7.359375 5.625zm23.80658 -43.328125l6.46875 0l0 47.296875l-6.46875 0l0 -47.296875zm27.018372 48.25q-6.21875 0 -9.390625 -3.328125q-3.15625 -3.328125 -3.15625 -8.890625l0 -19.453125l6.453125 0l0 19.203125q0 7.359375 7.359375 7.359375q6.46875 0 10.125 -5.828125l0 -20.734375l6.453125 0l0 30.71875l-6.265625 0l0 -4.359375q-2.171875 2.765625 -5.15625 4.046875q-2.96875 1.265625 -6.421875 1.265625zm37.181152 0q-5.578125 0 -8.9375 -2.84375q-3.359375 -2.84375 -3.359375 -7.703125q0 -5.125 3.234375 -7.90625q3.234375 -2.78125 9.1875 -2.78125q6.328125 0 10.75 2.546875l0 -1.59375q0 -3.640625 -2.21875 -5.40625q-2.203125 -1.765625 -6.9375 -1.765625q-2.8125 0 -5.46875 0.546875q-2.65625 0.546875 -4.765625 1.5l0 -5.25q1.921875 -0.890625 4.984375 -1.4375q3.078125 -0.546875 5.953125 -0.546875q7.625 0 11.296875 3.375q3.6875 3.359375 3.6875 9.296875l0 19.015625l-6.078125 0l0 -3.453125q-1.984375 2.171875 -4.703125 3.296875q-2.71875 1.109375 -6.625 1.109375zm1.59375 -4.921875q3.078125 0 5.5625 -1.21875q2.5 -1.21875 3.71875 -3.390625l0 -4.15625q-4.15625 -2.6875 -9.28125 -2.6875q-3.703125 0 -5.53125 1.4375q-1.828125 1.4375 -1.828125 4.390625q0 5.625 7.359375 5.625zm35.65033 4.921875q-4.671875 0 -7.203125 -2.6875q-2.53125 -2.6875 -2.53125 -7.609375l0 -16.390625l-4.671875 0l0 -4.984375l4.671875 0l0 -9.21875l6.53125 0l0 9.21875l7.5625 0l0 4.984375l-7.5625 0l0 15.9375q0 3.078125 1.1875 4.359375q1.1875 1.28125 4.3125 1.28125q1.859375 0 3.71875 -0.828125l0 5.109375q-2.4375 0.828125 -6.015625 0.828125zm15.873474 -37.6875q-1.59375 0 -2.6875 -1.078125q-1.09375 -1.09375 -1.09375 -2.703125q0 -1.59375 1.09375 -2.671875q1.09375 -1.09375 2.6875 -1.09375q1.65625 0 2.78125 1.09375q1.125 1.078125 1.125 2.671875q0 1.609375 -1.125 2.703125q-1.125 1.078125 -2.78125 1.078125zm-3.265625 6.015625l6.59375 0l0 30.71875l-6.59375 0l0 -30.71875zm31.6875 31.671875q-5.1875 0 -9.125 -1.9375q-3.9375 -1.953125 -6.15625 -5.625q-2.203125 -3.6875 -2.203125 -8.6875q0 -4.921875 2.171875 -8.625q2.1875 -3.71875 6.15625 -5.734375q3.96875 -2.03125 9.15625 -2.03125q5.171875 0 9.140625 2.03125q3.96875 2.015625 6.171875 5.734375q2.21875 3.703125 2.21875 8.625q0 5.0 -2.21875 8.6875q-2.203125 3.671875 -6.171875 5.625q-3.96875 1.9375 -9.140625 1.9375zm0 -5.109375q4.984375 0 7.921875 -3.0625q2.953125 -3.078125 2.953125 -8.078125q0 -5.1875 -2.953125 -8.1875q-2.9375 -3.015625 -7.921875 -3.015625q-5.0 0 -7.953125 3.015625q-2.9375 3.0 -2.9375 8.1875q0 5.0 2.9375 8.078125q2.953125 3.0625 7.953125 3.0625zm24.56482 -26.5625l6.28125 0l0 4.421875q2.171875 -2.765625 5.328125 -4.078125q3.171875 -1.3125 6.640625 -1.3125q6.140625 0 9.140625 3.265625q3.015625 3.265625 3.015625 8.78125l0 19.640625l-6.46875 0l0 -19.015625q0 -7.484375 -7.171875 -7.484375q-3.0625 0 -5.71875 1.453125q-2.65625 1.4375 -4.578125 4.375l0 20.671875l-6.46875 0l0 -30.71875z" fill-rule="nonzero"/><path fill="#000000" fill-opacity="0.0" d="m-32.204723 159.77165l1024.4094 0l0 260.09448l-1024.4094 0z" fill-rule="evenodd"/><path fill="#ffffff" d="m31.578295 224.46227l23.046877 0l46.937496 119.45314l46.921875 -119.45314l23.046875 0l-59.515625 149.10939l-20.90625 0l-59.53125 -149.10939zm218.67401 0l20.906265 0l59.515625 149.10939l-22.1875 0l-14.9375 -37.125l-65.92189 0l-14.499985 37.125l-22.40625 0l59.531235 -149.10939zm37.32814 93.85939l-26.875 -69.76564l-26.89064 69.76564l53.76564 0zm66.54904 -93.85939l59.953125 0q23.890625 0 36.6875 11.515625q12.796875 11.515625 12.796875 33.70314q0 16.421875 -8.75 27.84375q-8.734375 11.40625 -24.734375 15.46875l32.84375 60.578125l-22.609375 0l-31.78125 -58.875l-32.640625 0l0 58.875l-21.765625 0l0 -149.10939zm56.328125 71.89064q14.296875 0 22.71875 -6.71875q8.421875 -6.734375 8.421875 -19.953125q0 -14.500015 -8.21875 -20.687515q-8.203125 -6.1875 -22.921875 -6.1875l-34.5625 0l0 53.54689l34.5625 0zm76.57529 -71.89064l20.703125 0l75.9375 112.42189l0 -112.42189l21.984375 0l0 149.10939l-20.90625 0l-75.953125 -112.421875l0 112.421875l-21.765625 0l0 -149.10939zm146.34308 0l21.984375 0l0 149.10939l-21.984375 0l0 -149.10939zm91.09607 152.31252q-12.796875 0 -25.28125 -2.25q-12.46875 -2.234375 -20.375 -6.078125l0 -19.625q20.484375 9.609375 44.171875 9.609375q33.265625 0 33.265625 -22.40625q0 -7.671875 -3.625 -12.359375q-3.625 -4.703125 -10.453125 -8.21875q-6.828125 -3.53125 -22.1875 -9.71875q-21.109375 -8.53125 -30.5 -18.765625q-9.390625 -10.234375 -9.390625 -25.8125q0 -11.73439 6.390625 -20.79689q6.40625 -9.078125 17.921875 -14.078125q11.53125 -5.015625 26.46875 -5.015625q12.15625 0 21.96875 1.921875q9.8125 1.921875 19.203125 6.1875l0 18.765625q-18.5625 -8.3125 -37.546875 -8.3125q-15.359375 0 -23.46875 5.546875q-8.109375 5.546875 -8.109375 15.781265q0 7.03125 3.515625 11.84375q3.53125 4.796875 10.453125 8.53125q6.9375 3.734375 20.59375 9.28125q15.140625 6.1875 23.890625 11.734375q8.75 5.546875 13.328125 13.546875q4.59375 8.0 4.59375 19.9375q0 19.40625 -13.875 30.078125q-13.859375 10.671875 -40.953125 10.671875zm78.28644 -152.31252l21.765625 0l0 63.98439l77.859375 0l0 -63.98439l21.765625 0l0 149.10939l-21.765625 0l0 -66.765625l-77.859375 0l0 66.765625l-21.765625 0l0 -149.10939z" fill-rule="nonzero"/></g></svg>